<svg width="40" height="40" viewBox="0 0 40 40" fill="none" xmlns="http://www.w3.org/2000/svg">
<path fill-rule="evenodd" clip-rule="evenodd" d="M20 0.46875C9.2142 0.46875 0.46875 9.2142 0.46875 20C0.46875 30.7858 9.2142 39.5312 20 39.5312C30.7858 39.5312 39.5312 30.7858 39.5312 20C39.5312 9.2142 30.7858 0.46875 20 0.46875ZM20 3.59375C29.0599 3.59375 36.4062 10.9401 36.4062 20C36.4062 29.0599 29.0599 36.4062 20 36.4062C10.9401 36.4062 3.59375 29.0599 3.59375 20C3.59375 10.9401 10.9401 3.59375 20 3.59375ZM17.4609 11.0156C17.4609 9.61334 18.5977 8.47656 20 8.47656C21.4023 8.47656 22.5391 9.61334 22.5391 11.0156C22.5391 12.4179 21.4023 13.5547 20 13.5547C18.5977 13.5547 17.4609 12.4179 17.4609 11.0156ZM20.3906 15.7031C21.2433 15.7031 21.9364 16.3861 21.9528 17.2349L21.9531 17.2656V27.4219H24.6875C25.5504 27.4219 26.25 28.1214 26.25 28.9844C26.25 29.837 25.567 30.5302 24.7182 30.5466L24.6875 30.5469H16.0938C15.2308 30.5469 14.5312 29.8473 14.5312 28.9844C14.5312 28.1317 15.2142 27.4386 16.063 27.4222L16.0938 27.4219H18.8281V18.8281H17.2656C16.413 18.8281 15.7198 18.1451 15.7034 17.2964L15.7031 17.2656C15.7031 16.413 16.3861 15.7198 17.2349 15.7034L17.2656 15.7031H20.3906Z" fill="#F4F5F8"/>
</svg>
