<svg width="161" height="31" viewBox="0 0 161 31" fill="none" xmlns="http://www.w3.org/2000/svg">
<g clip-path="url(#clip0_252_1658)">
<path d="M8.20664 8.78561H5.27144V14.3878H8.4443C10.3225 14.3878 11.3795 13.2357 11.3795 11.6671C11.3795 9.87419 10.3545 8.78631 8.20984 8.78631M9.97083 18.5179L5.30411 18.6779V25.9444C5.30569 25.9574 5.30451 25.9706 5.30065 25.983C5.2968 25.9954 5.29038 26.0067 5.2819 26.0159C5.27341 26.0252 5.26308 26.0322 5.25172 26.0364C5.24035 26.0406 5.22824 26.0419 5.21635 26.0401H0.780874C0.768975 26.0419 0.756877 26.0406 0.745509 26.0364C0.734141 26.0322 0.723812 26.0252 0.715325 26.0159C0.706837 26.0067 0.700419 25.9954 0.696567 25.983C0.692715 25.9706 0.691531 25.9574 0.693112 25.9444V4.65626C0.691396 4.64325 0.692485 4.62999 0.696288 4.61752C0.700092 4.60505 0.706508 4.59373 0.715026 4.58444C0.723545 4.57515 0.733932 4.56815 0.745362 4.564C0.756793 4.55985 0.76895 4.55866 0.780874 4.56054H9.35138C13.0495 4.56054 15.6619 7.31343 15.6619 11.3792C15.6324 16.4693 12.4922 18.4222 9.96827 18.5179M19.0954 25.9444V4.65626C19.0937 4.64325 19.0948 4.62999 19.0986 4.61752C19.1024 4.60505 19.1088 4.59373 19.1174 4.58444C19.1259 4.57515 19.1363 4.56815 19.1477 4.564C19.1591 4.55985 19.1713 4.55866 19.1832 4.56054H23.6443C23.6562 4.55866 23.6684 4.55985 23.6798 4.564C23.6912 4.56815 23.7016 4.57515 23.7102 4.58444C23.7187 4.59373 23.7251 4.60505 23.7289 4.61752C23.7327 4.62999 23.7338 4.64325 23.7321 4.65626V25.9444C23.7336 25.9574 23.7325 25.9706 23.7286 25.983C23.7248 25.9954 23.7183 26.0067 23.7099 26.0159C23.7014 26.0252 23.691 26.0322 23.6797 26.0364C23.6683 26.0406 23.6562 26.0419 23.6443 26.0401H19.1832C19.1713 26.042 19.1591 26.0408 19.1477 26.0367C19.1363 26.0325 19.1259 26.0255 19.1174 26.0162C19.1088 26.007 19.1024 25.9956 19.0986 25.9832C19.0948 25.9707 19.0937 25.9574 19.0954 25.9444ZM36.353 8.78561H33.4178V14.3878H36.5875C38.4657 14.3878 39.5227 13.2357 39.5227 11.6671C39.5227 9.87419 38.4977 8.78561 36.353 8.78561ZM38.114 18.5179L33.4473 18.6779V25.9444C33.4489 25.9574 33.4477 25.9706 33.4439 25.983C33.44 25.9954 33.4336 26.0067 33.4251 26.0159C33.4166 26.0252 33.4063 26.0322 33.3949 26.0364C33.3835 26.0406 33.3714 26.0419 33.3596 26.0401H28.8985C28.8865 26.042 28.8744 26.0408 28.8629 26.0367C28.8515 26.0325 28.8411 26.0255 28.8326 26.0162C28.8241 26.007 28.8177 25.9956 28.8139 25.9832C28.8101 25.9707 28.809 25.9574 28.8107 25.9444V4.65626C28.809 4.64325 28.8101 4.62999 28.8139 4.61752C28.8177 4.60505 28.8241 4.59373 28.8326 4.58444C28.8411 4.57515 28.8515 4.56815 28.8629 4.564C28.8744 4.55985 28.8865 4.55866 28.8985 4.56054H37.4683C41.1665 4.56054 43.7788 7.31343 43.7788 11.3792C43.7493 16.4693 40.6399 18.4222 38.114 18.5179ZM61.3298 21.5272C61.3417 21.5253 61.3539 21.5265 61.3653 21.5307C61.3767 21.5348 61.3871 21.5418 61.3956 21.5511C61.4042 21.5604 61.4106 21.5717 61.4144 21.5842C61.4182 21.5967 61.4193 21.6099 61.4176 21.6229V25.9444C61.4193 25.9574 61.4182 25.9707 61.4144 25.9832C61.4106 25.9956 61.4042 26.007 61.3956 26.0162C61.3871 26.0255 61.3767 26.0325 61.3653 26.0367C61.3539 26.0408 61.3417 26.042 61.3298 26.0401H47.1829C47.171 26.0419 47.1589 26.0406 47.1476 26.0364C47.1362 26.0322 47.1259 26.0252 47.1174 26.0159C47.1089 26.0067 47.1025 25.9954 47.0986 25.983C47.0948 25.9706 47.0936 25.9574 47.0952 25.9444V4.65626C47.0936 4.64328 47.0948 4.63008 47.0986 4.61768C47.1025 4.60528 47.1089 4.59402 47.1174 4.58476C47.1259 4.5755 47.1362 4.5685 47.1476 4.5643C47.1589 4.5601 47.171 4.55881 47.1829 4.56054H60.6841C60.696 4.55866 60.7082 4.55985 60.7196 4.564C60.731 4.56815 60.7414 4.57515 60.7499 4.58444C60.7584 4.59373 60.7649 4.60505 60.7687 4.61752C60.7725 4.62999 60.7735 4.64325 60.7718 4.65626V8.94561C60.7734 8.95859 60.7722 8.97179 60.7684 8.98419C60.7645 8.99659 60.7581 9.00785 60.7496 9.01711C60.7411 9.02637 60.7308 9.03337 60.7194 9.03757C60.7081 9.04177 60.696 9.04306 60.6841 9.04134L51.6735 9.13706V13.2985L57.8661 13.3943C57.878 13.3924 57.8902 13.3936 57.9016 13.3977C57.913 13.4019 57.9234 13.4089 57.932 13.4182C57.9405 13.4275 57.9469 13.4388 57.9507 13.4513C57.9545 13.4637 57.9556 13.477 57.9539 13.49V17.5558C57.9556 17.5688 57.9545 17.582 57.9507 17.5945C57.9469 17.607 57.9405 17.6183 57.932 17.6276C57.9234 17.6369 57.913 17.6439 57.9016 17.648C57.8902 17.6522 57.878 17.6534 57.8661 17.6515L51.6735 17.7158V21.5586H61.3298V21.5272ZM77.6777 21.4629C77.6897 21.4611 77.7018 21.4622 77.7133 21.4664C77.7247 21.4705 77.7351 21.4775 77.7436 21.4868C77.7521 21.4961 77.7585 21.5074 77.7623 21.5199C77.7661 21.5324 77.7672 21.5456 77.7655 21.5586V25.9444C77.7671 25.9574 77.7659 25.9706 77.7621 25.983C77.7582 25.9954 77.7518 26.0067 77.7433 26.0159C77.7348 26.0252 77.7245 26.0322 77.7131 26.0364C77.7017 26.0406 77.6896 26.0419 77.6777 26.0401H65.265C65.253 26.042 65.2409 26.0408 65.2294 26.0367C65.218 26.0325 65.2076 26.0255 65.1991 26.0162C65.1906 26.007 65.1842 25.9956 65.1804 25.9832C65.1766 25.9707 65.1755 25.9574 65.1772 25.9444V4.65626C65.1755 4.64325 65.1766 4.62999 65.1804 4.61752C65.1842 4.60505 65.1906 4.59373 65.1991 4.58444C65.2076 4.57515 65.218 4.56815 65.2294 4.564C65.2409 4.55985 65.253 4.55866 65.265 4.56054H69.7261C69.738 4.55866 69.7501 4.55985 69.7616 4.564C69.773 4.56815 69.7834 4.57515 69.7919 4.58444C69.8004 4.59373 69.8068 4.60505 69.8106 4.61752C69.8144 4.62999 69.8155 4.64325 69.8138 4.65626V21.4308L77.6777 21.4629ZM81.201 25.9444V4.65626C81.1993 4.64325 81.2004 4.62999 81.2042 4.61752C81.208 4.60505 81.2144 4.59373 81.2229 4.58444C81.2314 4.57515 81.2418 4.56815 81.2533 4.564C81.2647 4.55985 81.2769 4.55866 81.2888 4.56054H85.7499C85.7618 4.55866 85.7739 4.55985 85.7854 4.564C85.7968 4.56815 85.8072 4.57515 85.8157 4.58444C85.8242 4.59373 85.8307 4.60505 85.8345 4.61752C85.8383 4.62999 85.8393 4.64325 85.8376 4.65626V25.9444C85.8392 25.9574 85.838 25.9706 85.8342 25.983C85.8303 25.9954 85.8239 26.0067 85.8154 26.0159C85.8069 26.0252 85.7966 26.0322 85.7852 26.0364C85.7739 26.0406 85.7618 26.0419 85.7499 26.0401H81.2888C81.2769 26.042 81.2647 26.0408 81.2533 26.0367C81.2418 26.0325 81.2314 26.0255 81.2229 26.0162C81.2144 26.007 81.208 25.9956 81.2042 25.9832C81.2004 25.9707 81.1993 25.9574 81.201 25.9444ZM101.188 14.1C101.199 14.0981 101.212 14.0993 101.223 14.1034C101.234 14.1076 101.245 14.1146 101.253 14.1239C101.262 14.1332 101.268 14.1445 101.272 14.1569C101.276 14.1694 101.277 14.1827 101.275 14.1957V18.3879C101.277 18.4009 101.276 18.4142 101.272 18.4267C101.268 18.4391 101.262 18.4505 101.253 18.4597C101.245 18.469 101.234 18.476 101.223 18.4802C101.212 18.4843 101.199 18.4855 101.188 18.4836L95.5503 18.5479V25.9444C95.552 25.9574 95.5509 25.9707 95.5471 25.9832C95.5433 25.9956 95.5369 26.007 95.5284 26.0162C95.5199 26.0255 95.5095 26.0325 95.4981 26.0367C95.4866 26.0408 95.4745 26.042 95.4625 26.0401H91.0014C90.9895 26.042 90.9774 26.0408 90.9659 26.0367C90.9545 26.0325 90.9441 26.0255 90.9356 26.0162C90.9271 26.007 90.9207 25.9956 90.9169 25.9832C90.9131 25.9707 90.912 25.9574 90.9137 25.9444V4.65626C90.9121 4.64328 90.9133 4.63008 90.9171 4.61768C90.921 4.60528 90.9274 4.59402 90.9359 4.58476C90.9444 4.5755 90.9547 4.5685 90.9661 4.5643C90.9775 4.5601 90.9896 4.55881 91.0014 4.56054H104.62C104.632 4.55866 104.644 4.55985 104.655 4.564C104.667 4.56815 104.677 4.57515 104.686 4.58444C104.694 4.59373 104.701 4.60505 104.704 4.61752C104.708 4.62999 104.709 4.64325 104.708 4.65626V8.97775C104.709 8.99076 104.708 9.00402 104.704 9.01649C104.701 9.02895 104.694 9.04028 104.686 9.04957C104.677 9.05886 104.667 9.06586 104.655 9.07001C104.644 9.07416 104.632 9.07535 104.62 9.07348L95.5509 9.13775V14.0357L101.188 14.1ZM122.349 21.5265C122.361 21.5246 122.373 21.5258 122.384 21.53C122.396 21.5341 122.406 21.5411 122.415 21.5504C122.423 21.5597 122.43 21.571 122.433 21.5835C122.437 21.596 122.438 21.6092 122.437 21.6222V25.9437C122.438 25.9567 122.437 25.97 122.433 25.9825C122.43 25.9949 122.423 26.0063 122.415 26.0155C122.406 26.0248 122.396 26.0318 122.384 26.036C122.373 26.0401 122.361 26.0413 122.349 26.0394H108.201C108.189 26.0413 108.177 26.0401 108.166 26.036C108.154 26.0318 108.144 26.0248 108.136 26.0155C108.127 26.0063 108.121 25.9949 108.117 25.9825C108.113 25.97 108.112 25.9567 108.114 25.9437V4.65626C108.112 4.64325 108.113 4.62999 108.117 4.61752C108.121 4.60505 108.127 4.59373 108.136 4.58444C108.144 4.57515 108.154 4.56815 108.166 4.564C108.177 4.55985 108.189 4.55866 108.201 4.56054H121.701C121.713 4.55866 121.725 4.55985 121.737 4.564C121.748 4.56815 121.759 4.57515 121.767 4.58444C121.776 4.59373 121.782 4.60505 121.786 4.61752C121.79 4.62999 121.791 4.64325 121.789 4.65626V8.94561C121.791 8.95859 121.789 8.97179 121.786 8.98419C121.782 8.99659 121.775 9.00785 121.767 9.01711C121.758 9.02637 121.748 9.03337 121.737 9.03757C121.725 9.04177 121.713 9.04306 121.701 9.04134L112.691 9.13706V13.2985L118.883 13.3943C118.895 13.3924 118.907 13.3936 118.919 13.3977C118.93 13.4019 118.941 13.4089 118.949 13.4182C118.958 13.4275 118.964 13.4388 118.968 13.4513C118.972 13.4637 118.973 13.477 118.971 13.49V17.5558C118.973 17.5688 118.972 17.582 118.968 17.5945C118.964 17.607 118.958 17.6183 118.949 17.6276C118.941 17.6369 118.93 17.6439 118.919 17.648C118.907 17.6522 118.895 17.6534 118.883 17.6515L112.691 17.7158V21.5586H122.347L122.349 21.5265ZM160.386 15.3164C160.386 18.2986 159.575 21.2138 158.056 23.6933C156.537 26.1729 154.378 28.1055 151.852 29.2467C149.326 30.388 146.547 30.6865 143.865 30.1048C141.184 29.523 138.72 28.0869 136.787 25.9782C134.854 23.8695 133.537 21.1829 133.004 18.258C132.47 15.3331 132.744 12.3014 133.79 9.54628C134.837 6.79113 136.609 4.43625 138.882 2.77946C141.155 1.12266 143.828 0.238342 146.562 0.238342C150.228 0.239639 153.744 1.82863 156.336 4.65604C158.928 7.48344 160.385 11.3179 160.386 15.3164Z" fill="white"/>
<path d="M157.773 14.42C157.776 12.1755 157.169 9.98046 156.028 8.11246C154.887 6.24447 153.264 4.78741 151.364 3.92555C149.464 3.06368 147.372 2.83572 145.353 3.27048C143.335 3.70524 141.479 4.78321 140.022 6.36805C138.565 7.9529 137.571 9.97345 137.167 12.1742C136.763 14.3749 136.966 16.657 137.751 18.7319C138.535 20.8068 139.867 22.5812 141.576 23.8308C143.285 25.0804 145.296 25.7491 147.354 25.7523C148.721 25.7564 150.075 25.4664 151.339 24.8987C152.603 24.3311 153.752 23.497 154.72 22.4443C155.687 21.3916 156.455 20.141 156.979 18.764C157.503 17.387 157.773 15.9108 157.773 14.42Z" fill="#003087"/>
<path d="M154.486 11.7628C154.486 10.7561 154.213 9.77197 153.7 8.93491C153.187 8.09786 152.458 7.44545 151.606 7.06019C150.753 6.67493 149.814 6.57413 148.909 6.77054C148.004 6.96694 147.172 7.45172 146.52 8.16358C145.867 8.87544 145.423 9.7824 145.243 10.7698C145.062 11.7572 145.155 12.7806 145.508 13.7107C145.861 14.6408 146.46 15.4357 147.227 15.995C147.994 16.5543 148.897 16.8529 149.82 16.8529C150.433 16.8539 151.04 16.7229 151.607 16.4675C152.173 16.212 152.688 15.8371 153.122 15.3643C153.555 14.8914 153.899 14.3299 154.133 13.7119C154.367 13.0939 154.487 12.4315 154.486 11.7628Z" fill="white"/>
</g>
<defs>
<clipPath id="clip0_252_1658">
<rect width="159.694" height="30.1561" fill="white" transform="translate(0.692322 0.238342)"/>
</clipPath>
</defs>
</svg>
