<svg width="296" height="297" viewBox="0 0 296 297" fill="none" xmlns="http://www.w3.org/2000/svg">
<path fill-rule="evenodd" clip-rule="evenodd" d="M120.25 19H37C26.7827 19 18.5 27.2827 18.5 37.5V120.75C18.5 130.967 26.7827 139.25 37 139.25H120.25C130.467 139.25 138.75 130.967 138.75 120.75V37.5C138.75 27.2827 130.467 19 120.25 19ZM37 37.5H120.25V120.75H37V37.5ZM259 19H175.75C165.533 19 157.25 27.2827 157.25 37.5V120.75C157.25 130.967 165.533 139.25 175.75 139.25H259C269.217 139.25 277.5 130.967 277.5 120.75V37.5C277.5 27.2827 269.217 19 259 19ZM175.75 37.5H259V120.75H175.75V37.5ZM194.25 64C194.25 59.5817 197.832 56 202.25 56H232.5C236.918 56 240.5 59.5817 240.5 64V94.25C240.5 98.6683 236.918 102.25 232.5 102.25H202.25C197.832 102.25 194.25 98.6683 194.25 94.25V64ZM157.25 165.75C157.25 161.332 160.832 157.75 165.25 157.75H186.25C190.668 157.75 194.25 161.332 194.25 165.75V186.75C194.25 191.168 190.668 194.75 186.25 194.75H165.25C160.832 194.75 157.25 191.168 157.25 186.75V165.75ZM194.25 202.75C194.25 198.332 197.832 194.75 202.25 194.75H232.5C236.918 194.75 240.5 198.332 240.5 202.75V233C240.5 237.418 236.918 241 232.5 241H202.25C197.832 241 194.25 237.418 194.25 233V202.75ZM248.5 241C244.082 241 240.5 244.582 240.5 249V270C240.5 274.418 244.082 278 248.5 278H269.5C273.918 278 277.5 274.418 277.5 270V249C277.5 244.582 273.918 241 269.5 241H248.5ZM249.75 165.75C249.75 161.332 253.332 157.75 257.75 157.75H269.5C273.918 157.75 277.5 161.332 277.5 165.75V177.5C277.5 181.918 273.918 185.5 269.5 185.5H257.75C253.332 185.5 249.75 181.918 249.75 177.5V165.75ZM165.25 250.25C160.832 250.25 157.25 253.832 157.25 258.25V270C157.25 274.418 160.832 278 165.25 278H177C181.418 278 185 274.418 185 270V258.25C185 253.832 181.418 250.25 177 250.25H165.25ZM55.5 64C55.5 59.5817 59.0817 56 63.5 56H93.75C98.1683 56 101.75 59.5817 101.75 64V94.25C101.75 98.6683 98.1683 102.25 93.75 102.25H63.5C59.0817 102.25 55.5 98.6683 55.5 94.25V64ZM55.5 202.75C55.5 198.332 59.0817 194.75 63.5 194.75H93.75C98.1683 194.75 101.75 198.332 101.75 202.75V233C101.75 237.418 98.1683 241 93.75 241H63.5C59.0817 241 55.5 237.418 55.5 233V202.75ZM120.25 157.75H37C26.7827 157.75 18.5 166.033 18.5 176.25V259.5C18.5 269.717 26.7827 278 37 278H120.25C130.467 278 138.75 269.717 138.75 259.5V176.25C138.75 166.033 130.467 157.75 120.25 157.75ZM37 176.25H120.25V259.5H37V176.25Z" fill="#F4F5F8"/>
</svg>
